<svg xmlns="http://www.w3.org/2000/svg" viewBox="0 0 500 500"><g id="freepik--background-complete--inject-88"><path d="M104.924,71.261v36.658h-10.16l-13.93-16.653v16.653h-12.045v-36.658h10.16l13.93,16.653v-16.653h12.045Z" style="fill:#e0e0e0;"></path><path d="M420.278,262.933c0-8.349,6.576-14.414,15.556-14.414s15.557,6.065,15.557,14.414-6.577,14.414-15.557,14.414-15.556-6.065-15.556-14.414Zm21.739,0c0-4.293-2.757-6.892-6.184-6.892s-6.183,2.599-6.183,6.892,2.757,6.893,6.183,6.893,6.184-2.6,6.184-6.893Z" style="fill:#e0e0e0;"></path><path d="M85.428,331.443c0,6.38-4.883,10.397-12.563,10.397h-3.978v6.773h-9.294v-27.568h13.272c7.68,0,12.563,4.018,12.563,10.398Zm-9.373,0c0-2.009-1.221-3.23-3.781-3.23h-3.387v6.459h3.387c2.56,0,3.781-1.221,3.781-3.229Z" style="fill:#e0e0e0;"></path><g><path d="M403.916,101.895c4.299,3.907,8.221,8.184,12.077,12.503,1.887,2.207,27.207,32.839,29.022,35.1l2.76,3.373c1.119,1.208,1.594,2.95,1.286,4.714-.285,1.952-1.943,3.471-3.787,3.469-1.674,.059-3.209-.71-4.151-2.079l-2.681-3.439c-1.808-2.273-26.888-33.131-28.634-35.464-3.406-4.742-7.773-8.712-10.718-13.871-.684-1.144,.732-3.58,1.881-4.409,.95-.685,2.162-.643,2.946,.102h0Z" style="fill:#e0e0e0;"></path><g><path d="M400.794,47.657c11.778,12.144,14.474,30.457,6.697,45.48-1.957,3.785-4.523,7.222-7.597,10.173-15.631,15.132-40.57,14.728-55.702-.904-15.132-15.631-14.728-40.57,.904-55.702,15.63-15.131,40.565-14.728,55.698,.899v.053Z" style="fill:#f0f0f0;"></path><path d="M340.765,42.852c-17.481,16.982-17.885,44.92-.903,62.401,16.982,17.481,44.92,17.885,62.401,.903,17.444-16.947,17.889-44.812,.994-62.307-16.93-17.531-44.867-18.019-62.398-1.088l-.094,.091Zm57.575,59.387c-15.245,14.766-39.574,14.378-54.34-.867-14.766-15.245-14.378-39.574,.867-54.34,15.217-14.739,39.491-14.383,54.27,.795,14.787,15.225,14.432,39.554-.792,54.341l-.05,.049,.046,.022Z" style="fill:#e0e0e0;"></path></g></g><g><g><g><path d="M443.92,309.355h-180.746c-3.232,0-5.862-2.63-5.862-5.862V40.219c0-3.232,2.63-5.862,5.862-5.862h180.746c3.232,0,5.862,2.629,5.862,5.862V303.493c0,3.233-2.63,5.862-5.862,5.862ZM263.174,34.607c-3.095,0-5.612,2.518-5.612,5.612V303.493c0,3.095,2.518,5.612,5.612,5.612h180.746c3.095,0,5.612-2.517,5.612-5.612V40.219c0-3.094-2.518-5.612-5.612-5.612h-180.746Z" style="fill:#e0e0e0;"></path><path d="M235.493,309.355H54.746c-3.232,0-5.862-2.63-5.862-5.862V40.219c0-3.232,2.629-5.862,5.862-5.862H235.493c3.232,0,5.862,2.629,5.862,5.862V303.493c0,3.233-2.63,5.862-5.862,5.862ZM54.746,34.607c-3.094,0-5.612,2.518-5.612,5.612V303.493c0,3.095,2.518,5.612,5.612,5.612H235.493c3.095,0,5.612-2.517,5.612-5.612V40.219c0-3.094-2.518-5.612-5.612-5.612H54.746Z" style="fill:#e0e0e0;"></path></g><rect x="0" y="370.424" width="500" height=".25" style="fill:#e0e0e0;"></rect></g><rect x="51.672" y="384.689" width="16.06" height=".25" style="fill:#e0e0e0;"></rect><rect x="170.352" y="381.979" width="53.53" height=".25" style="fill:#e0e0e0;"></rect><rect x="68.732" y="393.979" width="36.25" height=".25" style="fill:#e0e0e0;"></rect><rect x="378.352" y="381.849" width="43.19" height=".25" style="fill:#e0e0e0;"></rect><rect x="430.452" y="381.849" width="6.33" height=".25" style="fill:#e0e0e0;"></rect><rect x="316.212" y="388.079" width="53.89" height=".25" style="fill:#e0e0e0;"></rect></g><path d="M58.202,218.994c-2.687,4.091-4.493,8.584-5.455,13.219l-7.382,.695v14.295l7.382,.695c.961,4.634,2.769,9.127,5.455,13.219l-4.715,5.694,10.109,10.108,5.695-4.714c4.091,2.686,8.584,4.493,13.218,5.454l.695,7.383h14.295l.695-7.382c4.634-.963,9.128-2.769,13.219-5.455l5.695,4.714,10.109-10.108-4.714-5.695c2.686-4.091,4.493-8.585,5.454-13.219l7.381-.695v-14.295l-7.38-.696c-.962-4.634-2.77-9.127-5.456-13.218l4.715-5.695-10.109-10.108-5.694,4.715c-4.092-2.686-8.585-4.494-13.219-5.456l-.695-7.382h-14.296l-.695,7.382c-4.634,.962-9.127,2.768-13.218,5.455l-5.695-4.715-10.109,10.109,4.715,5.695Zm45.835,7.377c7.557,7.557,7.557,19.811,0,27.368-7.558,7.558-19.812,7.557-27.369,0-7.558-7.558-7.557-19.811,0-27.369,7.557-7.557,19.81-7.557,27.368,0Z" style="fill:#e0e0e0;"></path><path d="M386.258,358.72c-1.493,2.273-2.497,4.77-3.031,7.346l-4.102,.386v7.944l4.102,.386c.534,2.575,1.539,5.072,3.031,7.346l-2.62,3.164,5.617,5.617,3.165-2.62c2.274,1.493,4.77,2.497,7.346,3.031l.386,4.103h7.944l.387-4.102c2.575-.535,5.072-1.539,7.346-3.032l3.164,2.62,5.618-5.617-2.62-3.165c1.492-2.274,2.496-4.77,3.031-7.346l4.102-.386v-7.944l-4.101-.387c-.535-2.575-1.539-5.072-3.032-7.345l2.62-3.165-5.617-5.617-3.164,2.62c-2.274-1.493-4.771-2.497-7.346-3.032l-.386-4.102h-7.944l-.386,4.102c-2.575,.535-5.072,1.539-7.345,3.031l-3.165-2.62-5.617,5.618,2.62,3.165Zm25.471,4.1c4.199,4.2,4.2,11.009,0,15.209-4.2,4.2-11.009,4.2-15.209,0-4.2-4.2-4.2-11.009,0-15.209,4.2-4.199,11.009-4.2,15.209,0Z" style="fill:#e0e0e0;"></path></g><g id="freepik--Shadow--inject-88"><ellipse cx="257.562" cy="455.068" rx="196.748" ry="5.776" style="fill:#f5f5f5;"></ellipse></g><g id="freepik--Speech_Bubble_2--inject-88"><g><g><path d="M421.685,118.064c9.632-3.971,20.708,.505,24.737,9.998,4.03,9.493-.512,20.408-10.145,24.38-7.436,3.066-15.719,1.082-20.969-4.344l-5.675,.184,2.043-5.56c-.042-.095-.095-.183-.135-.279-4.03-9.493,.512-20.408,10.145-24.379Z" style="fill:#407BFF;"></path><path d="M440.787,117.959c-.053,0-.106-.017-.151-.051-4.775-3.643-11.535-4.702-17.225-2.695-.13,.046-.272-.022-.318-.153-.046-.13,.021-.273,.152-.319,5.843-2.062,12.788-.975,17.693,2.769,.11,.083,.131,.241,.048,.351-.05,.064-.124,.098-.199,.098Z" style="fill:#407BFF;"></path><path d="M418.226,117.517c-.073,0-.146-.032-.195-.094-.086-.108-.068-.265,.039-.352,.752-.601,1.642-1.053,2.573-1.307,.133-.037,.271,.043,.307,.175,.036,.133-.042,.271-.176,.307-.866,.236-1.693,.657-2.392,1.215-.046,.037-.102,.055-.156,.055Z" style="fill:#407BFF;"></path></g><path d="M428.376,144.158c-.71,0-1.304-.226-1.781-.679-.476-.452-.715-1.003-.715-1.653s.234-1.191,.702-1.627c.468-.435,1.066-.653,1.794-.653s1.326,.218,1.794,.653c.468,.436,.702,.978,.702,1.627s-.238,1.201-.715,1.653c-.476,.453-1.07,.679-1.781,.679Zm1.612-6.432h-3.224l-.806-11.71h4.836l-.806,11.71Z" style="fill:#fff;"></path></g></g><g id="freepik--Speech_Bubble_1--inject-88"><g><g><path d="M54.605,163.193c-9.161-7.062-10.998-20.196-4.102-29.336,6.896-9.14,19.912-10.825,29.073-3.763,7.072,5.452,9.757,14.518,7.451,22.576l3.324,5.356-6.48,1.118c-.068,.093-.123,.192-.193,.285-6.895,9.14-19.912,10.824-29.073,3.763Z" style="fill:#407BFF;"></path><path d="M81.272,126.672c-.053,0-.106-.017-.152-.051-5.31-4.051-12.826-5.227-19.148-2.996-.13,.045-.273-.022-.319-.153-.046-.13,.022-.273,.153-.319,6.476-2.285,14.176-1.081,19.618,3.07,.109,.083,.131,.241,.047,.351-.049,.064-.124,.098-.199,.098Z" style="fill:#407BFF;"></path><path d="M56.225,126.182c-.073,0-.146-.032-.195-.094-.086-.108-.069-.265,.039-.352,.831-.665,1.815-1.165,2.847-1.446,.135-.035,.271,.043,.307,.176,.036,.133-.042,.271-.176,.307-.966,.263-1.887,.731-2.666,1.354-.046,.037-.101,.055-.156,.055Z" style="fill:#407BFF;"></path></g><g><rect x="65.707" y="138.208" width="4.287" height="16.871" transform="translate(123.563 -5.028) rotate(44.999)" style="fill:#fff;"></rect><rect x="65.707" y="138.208" width="4.287" height="16.871" transform="translate(-85.687 96.304) rotate(-47.018)" style="fill:#fff;"></rect></g></g></g><g id="freepik--Clipboard--inject-88"><g><rect x="124.279" y="75.909" width="241.947" height="328.292" rx="6.751" ry="6.751" style="fill:#407BFF;"></rect><g><polygon points="143.216 84.877 132.551 84.877 132.551 395.856 356.259 397.62 362.439 390.489 357.024 97.137 143.216 84.877" style="fill:#ebebeb;"></polygon><polygon points="362.439 390.489 141.244 390.489 141.244 84.877 132.551 84.877 132.551 397.62 356.259 397.62 362.439 390.489" style="fill:#e0e0e0;"></polygon><polygon points="132.551 397.62 141.244 390.489 362.439 390.489 356.259 397.62 132.551 397.62" style="opacity:.2;"></polygon><g><path d="M381.497,380.457H162.931c-21.294-49.156-25.062-174.21-21.687-295.58h217.012c-1.772,121.301,2.505,230.224,23.241,295.58Z" style="fill:#fff;"></path><path d="M382.181,380.956H162.603l-.131-.301c-24.49-56.533-24.125-209.589-21.728-295.792l.014-.486h218.005l-.008,.507c-2.117,144.953,5.261,238.825,23.218,295.42l.207,.651Zm-218.92-1h217.554c-17.819-56.703-25.152-150.36-23.066-294.579H141.731c-2.379,86.056-2.708,238.09,21.529,294.579Z" style="fill:#263238;"></path></g><path d="M179.652,134.051h-13.197v-11.951h41.587v11.951h-13.197v33.764h-15.193v-33.764Z" style="fill:#263238;"></path><path d="M220.738,153.588h115.708c.965,0,.967-1.5,0-1.5h-115.708c-.965,0-.967,1.5,0,1.5h0Z" style="fill:#263238;"></path><path d="M170.69,184.879h165.756c.965,0,.967-1.5,0-1.5H170.69c-.965,0-.967,1.5,0,1.5h0Z" style="fill:#263238;"></path><path d="M170.69,212.221h80.502c.965,0,.967-1.5,0-1.5h-80.502c-.965,0-.967,1.5,0,1.5h0Z" style="fill:#263238;"></path><path d="M173.904,239.564h112.25c.965,0,.967-1.5,0-1.5h-112.25c-.965,0-.967,1.5,0,1.5h0Z" style="fill:#263238;"></path><path d="M177.118,266.906h57.173c.965,0,.967-1.5,0-1.5h-57.173c-.965,0-.967,1.5,0,1.5h0Z" style="fill:#263238;"></path><path d="M244.244,266.906h94.176c.965,0,.967-1.5,0-1.5h-94.176c-.965,0-.967,1.5,0,1.5h0Z" style="fill:#263238;"></path><path d="M180.332,294.249h68.153c.965,0,.967-1.5,0-1.5h-68.153c-.965,0-.967,1.5,0,1.5h0Z" style="fill:#407BFF;"></path><path d="M183.546,321.592h108.095c.965,0,.967-1.5,0-1.5h-108.095c-.965,0-.967,1.5,0,1.5h0Z" style="fill:#263238;"></path><path d="M189.078,351.933h73.131c.965,0,.967-1.5,0-1.5h-73.131c-.965,0-.967,1.5,0,1.5h0Z" style="fill:#263238;"></path><path d="M283.88,133.406c-6.704-1.197-13.584-1.033-20.212,.55-5.899,1.408-12.243,3.835-16.508,8.32-3.818,4.015-5.8,10.371-3.006,15.505,2.568,4.718,8.19,6.485,13.174,7.168,6.827,.935,13.843,.651,20.602-.658,5.806-1.124,12.653-2.787,16.873-7.248,3.482-3.68,4.463-9.063,3.556-13.934-.941-5.052-4.026-8.864-8.383-11.452-5.408-3.212-11.863-4.011-18.039-3.404-7.693,.756-15.232,3.069-22.149,6.487-.865,.428-.106,1.722,.757,1.295,5.682-2.807,11.76-4.786,18.014-5.825,5.505-.914,11.234-1.018,16.565,.837,4.192,1.459,8.347,4.169,10.391,8.221,2.095,4.154,2.325,9.54,.269,13.754-2.455,5.031-7.965,7.15-13.029,8.582-6.155,1.74-12.556,2.532-18.949,2.359-5.146-.139-11.133-.552-15.453-3.686-4.724-3.427-4.948-9.738-2.054-14.461,3.365-5.493,10.072-8.296,16.012-9.957,6.878-1.923,14.144-2.26,21.173-1.005,.944,.169,1.349-1.277,.399-1.446h0Z" style="fill:#407BFF;"></path><path d="M265.643,334.687c-10.692-1.608-21.902,.112-31.481,5.203-3.942,2.095-8.218,6.319-5.959,11.173,2.196,4.719,8.254,5.46,12.736,6.494,11.413,2.634,23.206,4.808,34.918,2.95,4.677-.742,10.25-1.939,13.927-5.147,3.506-3.059,3.125-7.591,.087-10.837-3.734-3.989-9.672-5.859-14.916-6.7-5.835-.935-11.764-.745-17.644-.489-.962,.042-.967,1.542,0,1.5,9.085-.395,18.946-.799,27.218,3.626,3.443,1.842,8.314,5.859,5.609,10.221-2.292,3.695-7.838,4.955-11.759,5.826-10.187,2.263-20.754,1.035-30.859-1.039-2.623-.538-5.233-1.134-7.84-1.744-2.444-.573-5.063-1.014-7.253-2.306-1.888-1.114-3.455-3.031-3.316-5.33,.157-2.615,2.128-4.648,4.22-5.984,4.497-2.872,9.912-4.618,15.12-5.628,5.525-1.071,11.231-1.18,16.795-.344,.944,.142,1.352-1.303,.399-1.446h0Z" style="fill:#407BFF;"></path><path d="M304.774,341.279h45.638c.965,0,.967-1.5,0-1.5h-45.638c-.965,0-.967,1.5,0,1.5h0Z" style="fill:#407BFF;"></path><path d="M307.965,345.165h40.532c.965,0,.967-1.5,0-1.5h-40.532c-.965,0-.967,1.5,0,1.5h0Z" style="fill:#407BFF;"></path></g><path d="M218.733,70.893h63.515c4.199,0,7.608,3.409,7.608,7.608v17.216h-78.731v-17.216c0-4.199,3.409-7.608,7.608-7.608Z" style="fill:#263238;"></path><polygon points="236.172 73.601 232.498 61.798 270.767 61.798 266.466 74.081 236.172 73.601" style="fill:#263238;"></polygon><rect x="150.823" y="70.886" width="55.58" height=".75" style="fill:#407BFF;"></rect><g><path d="M194.367,195.666c8.635-6.724,16.738-14.106,25.373-20.83,.761-.592-.308-1.647-1.061-1.061-8.635,6.724-16.738,14.106-25.373,20.83-.761,.592,.308,1.647,1.061,1.061h0Z" style="fill:#407BFF;"></path><path d="M192.2,175.056c-.249-.016-.144-.041,.119,.124,.281,.176,.548,.374,.811,.575,.751,.574,1.471,1.191,2.187,1.806,2.243,1.926,4.428,3.922,6.603,5.924,4.606,4.239,9.152,8.545,13.677,12.871,1.029,.984,2.057,1.969,3.082,2.957,.695,.67,1.757-.389,1.061-1.061-7.649-7.379-15.297-14.827-23.362-21.752-.841-.722-1.689-1.442-2.578-2.107-.466-.349-.993-.799-1.6-.838-.964-.063-.96,1.437,0,1.5h0Z" style="fill:#407BFF;"></path></g><path d="M259.996,294.249h83.018c.965,0,.967-1.5,0-1.5h-83.018c-.965,0-.967,1.5,0,1.5h0Z" style="fill:#263238;"></path><path d="M304.774,321.592h43.724c.965,0,.967-1.5,0-1.5h-43.724c-.965,0-.967,1.5,0,1.5h0Z" style="fill:#263238;"></path><path d="M301.042,239.564h37.378c.965,0,.967-1.5,0-1.5h-37.378c-.965,0-.967,1.5,0,1.5h0Z" style="fill:#263238;"></path><path d="M260.828,212.221h32.523c.965,0,.967-1.5,0-1.5h-32.523c-.965,0-.967,1.5,0,1.5h0Z" style="fill:#407BFF;"></path><path d="M304.774,212.051h33.647c.965,0,.967-1.5,0-1.5h-33.647c-.965,0-.967,1.5,0,1.5h0Z" style="fill:#263238;"></path><g><path d="M341.708,253.913c3.712,3.345,5.788,8.279,5.46,13.284-.321,4.899-3.023,9.52-7.061,12.282-.792,.542-.043,1.842,.757,1.295,4.403-3.012,7.295-7.876,7.775-13.2,.494-5.483-1.801-11.054-5.87-14.722-.715-.645-1.78,.413-1.061,1.061h0Z" style="fill:#407BFF;"></path><path d="M349.425,276.832c-1.428,.604-2.855,1.208-4.283,1.812l-2.141,.906c-.552,.234-1.157,.571-1.766,.611-.53,.036-.576-.346-.534-.795,.062-.678,.257-1.361,.392-2.028,.31-1.539,.621-3.079,.931-4.618,.19-.943-1.256-1.346-1.446-.399-.367,1.822-.735,3.644-1.102,5.466-.267,1.323-.693,3.295,1.057,3.795,.672,.192,1.399,.018,2.031-.233,.822-.326,1.63-.688,2.445-1.033,1.725-.73,3.45-1.46,5.175-2.189,.376-.159,.451-.707,.269-1.026-.221-.389-.655-.426-1.026-.269h0Z" style="fill:#407BFF;"></path></g><rect x="139.033" y="70.886" width="8.645" height=".75" style="fill:#407BFF;"></rect></g></g><g id="freepik--Character_2--inject-88"><g><g><g><path d="M440.626,356.433c-5.554-6.626-5.432-15.874,.272-20.655,5.704-4.781,14.831-3.285,20.385,3.341,5.554,6.626,5.432,15.874-.272,20.655-5.704,4.781-14.831,3.285-20.385-3.341Z" style="fill:#407BFF;"></path></g><polygon points="288.39 174.857 280.24 145.577 309.031 157.556 460.535 338.305 439.894 355.606 288.39 174.857" style="fill:#407BFF;"></polygon><path d="M287.846,148.729c-.642,2.937-2.449,4.476-5.453,4.596l5.997,21.532s5.677,3.157,5.361-3.962c0,0,6.199,2.096,5.886-4.933,0,0,5.384,1.294,5.134-4.304,0,0,4.481,.865,4.26-4.102l-21.185-8.827Z" style="fill:#ef8274;"></path><path d="M299.726,165.926l152.612,179.671,4.805-4.028c.577-.865-152.282-179.946-152.282-179.946,.249,5.597-5.134,4.304-5.134,4.304Z" style="fill:#fff; opacity:.3;"></path><path d="M293.818,170.944c.175,3.926-1.473,4.725-2.986,4.653l151.545,178.415,4.805-4.028c.549-.823-137.999-163.209-151.263-178.752-1.143,.034-2.101-.288-2.101-.288Z" style="fill:#fff; opacity:.3;"></path><rect x="436.439" y="345.083" width="28.528" height="4.603" transform="translate(1019.268 324.089) rotate(140.03)" style="fill:#263238;"></rect></g><g><path d="M404.103,425.443l.02,18.933-9.531,.683-3.35-17.787c4.359-2.904,8.649-3.597,12.86-1.83Z" style="fill:#ffb463;"></path><path d="M403.792,442.276c.938,2.499,.999,12.723,.999,12.723l-20.203,.022c-1.2-3.697,.657-6.221,3.013-6.556,1.013-.143,2.204-1.181,3.072-2.089,.006-.118,1.241-5.797,2.005-6.068,0,0,.526-.591,.974-.001,.448,.589,.837,2.509,.837,2.509,3.154-3.911,6.244-3.389,9.302-.539Z" style="fill:#263238;"></path><path d="M404.037,445.244c-2.283-.84-4.732-.521-6.723,.876-.348,.245-.679-.327-.333-.569,2.12-1.488,4.8-1.837,7.231-.942,.395,.145,.224,.783-.175,.636h0Z" style="fill:#fff;"></path><path d="M384.649,453.525h0l19.906-.022c.182,0,.33-.148,.33-.33,0-.182-.148-.329-.33-.329h0l-19.906,.022c-.182,0-.33,.148-.33,.33,0,.182,.148,.329,.33,.329Z" style="fill:#fff;"></path></g><g><path d="M362.621,422.974l.023,21.369-9.171,.698-4.511-20.002c3.682-2.733,7.958-4.072,13.659-2.065Z" style="fill:#ffb463;"></path><path d="M363.006,442.32c.938,2.499,.999,12.722,.999,12.722l-23.21,.025c-1.2-3.697,1.308-5.889,3.664-6.224,1.013-.142,4.56-1.517,5.429-2.424,.006-.118,1.241-5.797,2.005-6.068,0,0,.526-.591,.974,0,.448,.59,.837,2.509,.837,2.509,3.154-3.911,6.244-3.389,9.302-.539Z" style="fill:#263238;"></path><path d="M362.887,445.289c-2.283-.84-4.732-.521-6.723,.875-.348,.245-.679-.327-.333-.57,2.12-1.488,4.8-1.837,7.231-.942,.395,.146,.224,.783-.175,.636h0Z" style="fill:#fff;"></path><path d="M340.794,453.573h0l22.975-.025c.182,0,.33-.148,.33-.33,0-.182-.148-.329-.33-.329h0l-22.975,.025c-.182,0-.33,.148-.33,.33,0,.182,.148,.329,.33,.329Z" style="fill:#fff;"></path></g><g><path d="M405.92,435.957l-18.754,1.113c-4.207-15.207-8.366-69.734-8.796-86.104-.514-19.56-6.793-68.651-1.241-78.866,5.553-10.215,30.669-2.08,30.669-2.08,0,0-3.13,59.774-1.878,78.837,1.084,16.522,2.762,65.089,0,87.099Z" style="fill:#263238;"></path><path d="M368.464,435.957l-18.592,1.113c-2.263-16.834-11.357-78.142-10.61-89.886,.912-14.345,11.681-76.437,15.685-81.224,4.004-4.788,33.321,7.622,33.321,7.622,0,0-12.049,53.394-21.549,76.488-1.973,4.797,3.271,65.412,1.745,85.887Z" style="fill:#263238;"></path><g style="opacity:.3;"><path d="M381.148,309.313c.356-.872,.713-1.744,1.043-2.631,1.767-4.745,3.104-9.684,4.165-14.722,3.058-.364,6.079-1.111,9.023-2.236,.373-.142,.213-.853-.162-.71-4.656,1.778-9.494,2.603-14.376,2.451-.393-.012-.392,.724,0,.736,1.629,.051,3.253-.017,4.869-.18-1.064,5.005-2.396,9.916-4.171,14.624-1.777,4.714-3.933,9.199-6.159,13.62-.205,.407,.323,.776,.526,.372,1.64-3.257,3.236-6.553,4.676-9.945,.133,4.046,.536,16.549,.989,33.114,.782,28.586,6.791,75.065,8.47,87.6h.618c-1.653-12.337-7.695-58.985-8.479-87.625-.536-19.581-1.002-33.497-1.034-34.467Z" style="fill:#fff;"></path><path d="M403.37,348.346c-5.407-.354-10.821-.178-16.204,.526-.387,.051-.389,.787,0,.736,5.383-.704,10.798-.88,16.204-.526,.393,.026,.39-.711,0-.736Z" style="fill:#fff;"></path><path d="M342.601,348.41c.42-8.974,9.674-47.067,9.767-47.45,.047-.195-.045-.4-.206-.457-.161-.057-.331,.054-.378,.249-.382,1.57-9.368,38.558-9.791,47.616-.364,7.791,9.284,79.82,9.695,82.883,.024,.181,.154,.309,.3,.309,.016,0,.033-.001,.049-.005,.166-.033,.279-.222,.252-.423-.101-.749-10.049-75.012-9.688-82.723Z" style="fill:#fff;"></path><path d="M347.859,297.016c6.971-3.178,9.225-12.415,10.885-20.314,.097-.46-.491-.655-.588-.196-1.598,7.602-3.719,16.727-10.459,19.8-.364,.166-.205,.878,.162,.71Z" style="fill:#fff;"></path><path d="M363.465,349.054c-4.531-.344-9.062-.689-13.593-1.033-.392-.03-.39,.707,0,.736,4.531,.344,9.062,.689,13.593,1.033,.392,.03,.39-.707,0-.736Z" style="fill:#fff;"></path></g></g><g><path d="M370.373,150.632c-.452-.107-.928,.393-1.071,1.083-.143,.69,.107,1.309,.559,1.416,.452,.107,.928-.393,1.071-1.083,.19-.69-.107-1.309-.559-1.416Z" style="fill:#263238;"></path><path d="M369.1,159.761c-1.197,.064-2.361-.407-3.178-1.285,1.732-1.531,3.246-3.294,4.499-5.237l-1.321,6.523Z" style="fill:#f98412;"></path><path d="M373.92,148.585c-.698-.792-1.733-1.204-2.785-1.107h0c-.225,.029-.434-.122-.476-.345-.036-.227,.119-.439,.345-.476,1.343-.155,2.676,.356,3.571,1.369,.159,.162,.159,.421,0,.583-.078,.073-.179,.115-.286,.119-.14,.022-.281-.032-.369-.143Z" style="fill:#263238;"></path><path d="M378.467,172.188c1.238,4.975,1.428,10.26-5.713,11.962,0,0-6.844,6.487,6.249,6.487,11.891,0,13.641-6.487,13.641-6.487-4.475-4.261-3.225-15.986-1.976-22.377l-12.2,10.415Z" style="fill:#ffb463;"></path><path d="M394.556,149.777c-1.257-6.412-7.474-10.591-13.887-9.334-8.998,1.69-12.712,14.057-12.438,22.056,.298,8.88,9.986,14.902,17.771,9.653,5.19-3.488,6.082-8.499,8.332-16.89,.503-1.786,.579-3.665,.222-5.485Z" style="fill:#ffb463;"></path><path d="M399.856,148.764c1.752-1.041,1.947-5.372-.131-7.952,.244,1.523,.103,2.753-.211,3.745-.738-2.541-3.124-5.24-5.585-5.733-5.951-1.19-10.522-6.546-12.438-9.427-.916,3.131,1.678,6.106,1.678,6.106-1.845-.048-6.951-2.428-7.892-4.618-.581,2.291-.28,4.718,.845,6.797-2.381-.517-4.869,.045-6.797,1.535,1.596-.094,3.148,.546,4.214,1.738-1.271,.31-2.598,.31-3.868,0,1.525,2.402,3.849,4.115,7.058,4.787-2.957,1.968-1.297,6.752-.559,9.52-3.285,4.511,1.547,7.868,2.726,11.522,.905,2.904,8.011,4.606,11.331,3.083,1.738-.785,1.916-2.726,4.571-5.749,2.136-2.433,5.884-7.213,5.058-12.808,.503,.579,1.06,1.384,1.631,2.524,.086-2.047-.652-4.333-1.631-5.069Z" style="fill:#263238;"></path><path d="M376.706,150.858c-2.511,.738-3.868,4.368-4.011,6.689-.167,2.547,1.535,4.237,3.809,2.547,1.732-1.302,2.987-3.139,3.571-5.225,.643-2.511-.857-4.749-3.369-4.011Z" style="fill:#ffb463;"></path></g><g><path d="M372.805,183.865s3.074-1.258,1.681-3.722c4.523-1.321,15.303-1.204,17.683-.502,2.178,.643,4.077,3.033,3.113,4.807l-22.477-.583Z" style="fill:#263238;"></path><path d="M372.805,183.865s3.074-1.258,1.681-3.722c4.523-1.321,15.303-1.204,17.683-.502,2.178,.643,4.077,3.033,3.113,4.807l-22.477-.583Z" style="fill:#fff; opacity:.8;"></path></g><g><path d="M409.565,217.486s6.976,12.254,6.846,12.814l-20.469,14.112,2.146,6.646s27.184-9.11,29.703-17.861-8.352-24.925-8.352-24.925l-9.874,9.214Z" style="fill:#ffb463;"></path><g><path d="M400.472,243.796s-1.524-2.507-3.887-3.054c-2.363-.547-4.105-1.613-5.89-1.898-1.785-.285-.214,1.581,.823,2.405,1.037,.824,2.204,1.768,1.459,2.447-.744,.679-9.204,2.557-10.129,3.616-.925,1.059,.538,1.183,.538,1.183,0,0-2.042,.512-2.06,1.376-.005,.224,.349,.754,1.316,.667,2.176-.196,6.722-.844,6.722-.844-.262,.032-5.815,1.231-6.624,1.52-1.056,.377-1.363,1.093-1.124,1.699,.339,.862,7.276-.391,7.605-.239,0,0-4.018,.587-4.433,1.708-.416,1.12,2.133,.888,4.342,.257,2.025-.579,6.149-1.184,8.15-1.972,2.466-.971,3.904-2.177,4.031-4.659,.127-2.483-.839-4.209-.839-4.209Z" style="fill:#ffb463;"></path><path d="M383.642,248.499c-.058,0-.109-.04-.122-.098-.015-.067,.027-.134,.095-.149,1.639-.367,3.319-.664,4.995-.882,.079-.01,.132,.04,.141,.108,.009,.068-.039,.131-.107,.14-1.669,.217-3.342,.513-4.974,.878-.009,.002-.019,.003-.027,.003Z" style="opacity:.3;"></path><path d="M390.789,252.622c-.045,0-.088-.024-.11-.066-1.025-1.943-1.469-4.216-1.247-6.4,.006-.068,.064-.117,.137-.112,.068,.007,.118,.068,.111,.137-.216,2.136,.217,4.358,1.22,6.257,.032,.062,.009,.137-.052,.169-.019,.01-.039,.015-.059,.015Z" style="opacity:.3;"></path><path d="M397.404,246.996c-.68,0-1.365-.173-1.955-.503-.796-.445-1.44-1.187-1.769-2.036-.025-.064,.007-.137,.071-.162,.066-.025,.138,.008,.161,.072,.308,.795,.912,1.491,1.657,1.908,.746,.417,1.654,.567,2.495,.411,.067-.013,.132,.032,.146,.1,.013,.068-.032,.133-.101,.146-.231,.042-.469,.064-.706,.064Z" style="opacity:.3;"></path></g></g><g><path d="M398.059,205.325c1.463,6.054,4.473,11.624,8.737,16.164l16.45-12.546s-10.422-22.291-18.624-24.172c-8.38-1.928-9.372,9.579-6.563,20.553Z" style="fill:#263238;"></path><path d="M398.059,205.325c1.463,6.054,4.473,11.624,8.737,16.164l16.45-12.546s-10.422-22.291-18.624-24.172c-8.38-1.928-9.372,9.579-6.563,20.553Z" style="fill:#fff; opacity:.8;"></path></g><g><path d="M403.477,184.392c8.332,2.071,7.142,14.215,7.142,25.986,0,18.049,.178,48.295-.631,65.65-.019,1.283-3.374,2.647-4.546,2.853-10.046,1.389-37.887,1.737-47.123-.257-1.076-.266-9.204-1.877-9.271-3.067,12.244-19.961,4.629-73.437,5.26-79.869,.667-6.664,2.869-8.683,5.154-9.803,8.927-4.4,37.899-3.049,44.017-1.492Z" style="fill:#263238;"></path><path d="M403.477,184.392c8.332,2.071,7.142,14.215,7.142,25.986,0,18.049,.178,48.295-.631,65.65-.019,1.283-3.374,2.647-4.546,2.853-10.046,1.389-37.887,1.737-47.123-.257-1.076-.266-9.204-1.877-9.271-3.067,12.244-19.961,4.629-73.437,5.26-79.869,.667-6.664,2.869-8.683,5.154-9.803,8.927-4.4,37.899-3.049,44.017-1.492Z" style="fill:#fff; opacity:.8;"></path></g><path d="M355.483,198.612c-.429,2.047-.893,4.285-1.393,6.463s-1.047,4.333-1.595,6.475c-1.055,4.192-2.358,8.318-3.904,12.355-.689,1.786-1.529,3.511-2.511,5.154-.342,.589-.741,1.143-1.19,1.654l-.321,.333-.345,.321c-.179,.202-.226,.333-.512,.452-.491,.108-1.003,.058-1.464-.143-.774-.302-1.506-.702-2.178-1.19-.417-.25-.821-.559-1.19-.845-.133-.103-.276-.218-.418-.333-.941-4.991-7.021-7.011-7.021-7.011l-5.344-2.457,.059,9.123,1.654,2.178,4.709,2.326c.062,.162,.126,.322,.195,.483,.274,.643,.607,1.274,.952,1.904,.771,1.324,1.734,2.528,2.857,3.571,1.356,1.285,2.983,2.249,4.761,2.821,2.061,.629,4.253,.686,6.344,.167,.501-.118,.994-.27,1.476-.452,.468-.174,.925-.377,1.369-.607,.887-.481,1.717-1.06,2.476-1.726,1.229-1.06,2.332-2.258,3.285-3.571,1.579-2.22,2.938-4.588,4.059-7.07,2.047-4.524,3.738-9.2,5.059-13.986,.667-2.333,1.238-4.63,1.774-7.011,.536-2.381,1.024-4.63,1.428-7.142l-13.069-2.238Z" style="fill:#ffb463;"></path><g><path d="M352.543,193.673c-2.957,7.09-5.113,14.488-6.428,22.056l18.818,9.832s16.914-16.14,9.772-30.424c-4.083-8.225-16.676-13.641-22.163-1.464Z" style="fill:#263238;"></path><path d="M352.543,193.673c-2.957,7.09-5.113,14.488-6.428,22.056l18.818,9.832s16.914-16.14,9.772-30.424c-4.083-8.225-16.676-13.641-22.163-1.464Z" style="fill:#fff; opacity:.8;"></path></g></g></g><g id="freepik--Character_1--inject-88"><g><g><polygon points="120.08 423.656 117.218 445.877 110.486 445.877 108.757 424.068 120.08 423.656" style="fill:#ef8274;"></polygon><g><path d="M120.036,441.175h-3.008c-.681,0-1.31,.344-1.713,.894-1.735,2.369-3.039,1.474-4.926-.754-1.2-.14-1.523,1.237-1.62,1.607l-2.249,8.181c-.195,.683,.2,1.395,.883,1.591,.121,.035,.247,.051,.374,.049h23.836c3.791,0,4.577-3.82,3.015-4.174-7.022-1.552-11.994-3.618-14.165-5.661-.402-.358,.011-.625-.426-1.733Z" style="fill:#263238;"></path><path d="M126.181,443.451c.317-.228,.506-.592,.511-.982,.027-.209-.069-.415-.245-.53-.943-.668-4.704,1.09-5.127,1.297-.047,.017-.084,.054-.101,.101-.031,.087,.014,.182,.101,.214,.924,.219,1.869,.341,2.819,.363,.713,.068,1.428-.094,2.043-.462Zm.029-1.228c.077,.048,.116,.137,.098,.226-.016,.281-.152,.542-.373,.717-.854,.638-2.917,.363-4.027,.157,1.562-.687,3.781-1.463,4.302-1.1Z" style="fill:#407BFF;"></path><path d="M121.447,443.589c1.129-.471,3.496-2.328,3.369-3.31-.02-.206-.167-.452-.678-.521-2.062-.236-2.946,3.467-2.946,3.624-.02,.063-.001,.133,.049,.177,.038,.011,.079,.011,.118,0l.088,.03Zm2.622-3.526c.383,.039,.383,.177,.383,.226,.108,.599-1.611,2.141-2.838,2.789,.255-.864,1.011-3.025,2.318-3.025l.138,.01Z" style="fill:#407BFF;"></path></g></g><g><polygon points="89.301 422.499 82.741 444.8 76.078 444.411 77.486 420.21 89.301 422.499" style="fill:#ef8274;"></polygon><g><path d="M86.076,441.53h-3.009c-.681,0-1.31,.344-1.713,.894-1.735,2.369-3.039,1.474-4.926-.754-1.2-.14-1.523,1.237-1.62,1.607l-2.249,8.181c-.195,.683,.2,1.395,.883,1.591,.121,.035,.247,.051,.374,.049h23.836c3.791,0,4.577-3.82,3.015-4.174-7.022-1.552-11.994-3.618-14.165-5.661-.402-.358,.011-.625-.427-1.733Z" style="fill:#263238;"></path><path d="M92.221,443.806c.317-.228,.506-.592,.511-.982,.026-.209-.069-.415-.246-.53-.943-.668-4.704,1.09-5.127,1.296-.047,.017-.084,.054-.101,.101-.031,.087,.014,.183,.101,.214,.924,.219,1.869,.341,2.819,.363,.713,.068,1.428-.094,2.043-.461Zm.03-1.228c.077,.048,.116,.137,.098,.226-.016,.281-.152,.543-.373,.717-.854,.638-2.917,.363-4.027,.157,1.561-.687,3.781-1.463,4.302-1.1Z" style="fill:#407BFF;"></path><path d="M87.488,443.944c1.129-.471,3.496-2.328,3.369-3.31-.02-.206-.167-.452-.678-.52-2.062-.236-2.946,3.467-2.946,3.624-.02,.063-.001,.133,.049,.177,.038,.011,.079,.011,.118,0l.088,.029Zm2.622-3.526c.383,.039,.383,.177,.383,.226,.108,.599-1.611,2.141-2.838,2.789,.255-.864,1.012-3.025,2.318-3.025l.138,.01Z" style="fill:#407BFF;"></path></g></g><path d="M123.805,257.418s8.094,16.268,.309,46.182-35.071,134.6-35.071,134.6l-16.533-1.986s1.422-37.696,13.752-67.838c0,0,6.894-58.879,5.783-60.656-2.015-8.426-4.095-17.343-.615-30.108,1.361-5.463,3.285-10.874,5.656-15.98,2.29-4.579,1.614-6.308,1.614-6.308l25.106,2.095Z" style="fill:#407BFF;"></path><path d="M123.805,257.418s8.094,16.268,.309,46.182-35.071,134.6-35.071,134.6l-16.533-1.986s1.422-37.696,13.752-67.838c0,0,6.894-58.879,5.783-60.656-2.015-8.426-4.095-17.343-.615-30.108,1.361-5.463,3.285-10.874,5.656-15.98,2.29-4.579,1.614-6.308,1.614-6.308l25.106,2.095Z" style="opacity:.5;"></path><path d="M103.818,298.28s6.142,11.827,8.925,13.795c2.37,1.676,1.427,21.336,1.584,26.896,.012,.417,.028,2.099,.028,2.099l-2.509,9.631c.192-.551,.452-17.304-1.549-34.915-.674-5.931-6.478-10.748-6.478-17.507Z" style="opacity:.5;"></path><path d="M134.463,254.923c.258,2.011,.805,3.973,1.626,5.827,2.736,6.949,5.724,28.803,5.06,39.862-1.265,22.925,.788,29.5-6.285,72.052-2.667,16.044-8.734,37.003-13.703,66.172h-15.56s.712-36.531,7.913-68.688c0,0,2.53-45.311-1.236-57.126-2.633-8.22-10.051-16.176-8.151-33.554,1.9-17.378,6.514-23.32,6.514-23.32l23.823-1.225Z" style="fill:#407BFF;"></path><path d="M134.463,254.923c.258,2.011,.805,3.973,1.626,5.827,2.736,6.949,5.724,28.803,5.06,39.862,.072,13.719-.279,43.657-6.285,72.052-7.206,34.067-13.703,66.172-13.703,66.172h-15.56s.712-36.531,7.913-68.688c0,0,2.53-45.311-1.236-57.126-2.633-8.22-10.051-16.176-8.151-33.554,1.9-17.378,6.514-23.32,6.514-23.32l23.823-1.225Z" style="opacity:.5;"></path><path d="M82.775,217.43s-13.406,27.567-7.808,29.834c5.598,2.267,24.465,3.537,24.465,3.537l8.231,7.876,4.762-3.102-1.202-8.014-10.818-2.29-14.447-4.488c-1.199-.402-1.845-1.7-1.443-2.899,.02-.061,.044-.122,.069-.181l6.983-15.318-8.792-4.957Z" style="fill:#ef8274;"></path><g><path d="M118.579,170.905c-.08-.724,.243-1.364,.728-1.405,.484-.041,.922,.502,1,1.237s-.243,1.364-.728,1.405c-.484,.041-.933-.504-1-1.237Z" style="fill:#263238;"></path><path d="M118.311,171.95l4.716,4.331c-1.041,1.11-2.545,1.665-4.058,1.497l-.658-5.827Z" style="fill:#d7504d;"></path><path d="M117.118,169.318c.141-.02,.265-.106,.332-.231,.477-.987,1.397-1.687,2.476-1.884,.232-.026,.4-.235,.374-.468h0c-.02-.237-.227-.414-.464-.397-1.367,.229-2.54,1.101-3.151,2.345-.114,.201-.046,.457,.153,.574h0c.08,.06,.182,.083,.28,.062Z" style="fill:#263238;"></path><path d="M93.414,174.227c2.059,9.054,2.738,12.932,8.129,16.871,7.854,3.623,18.807,1.415,19.481-8.093,.618-8.542-2.85-21.883-12.42-24.103-6.817-1.587-13.629,2.653-15.216,9.47-.449,1.927-.44,3.932,.026,5.855h0Z" style="fill:#ef8274;"></path><path d="M111.074,188.718s5.898,2.332,9.275-2.577c-1.589,4.147-5.649,6.237-10.136,6.552l-1.291-1.301,1.188-2.032,.964-.642Z" style="isolation:isolate; opacity:.2;"></path><path d="M97.444,200.705s5.759-1.647,3.742-12.426c0,0,4.975-3.438,9.052-.873,4.077,2.565-1.279,11.203,3.639,13.558,0,0-3.359,3.249-16.432-.259Z" style="fill:#ef8274;"></path><path d="M112.633,175.425c-1.123-1.559,2.045-4.181,1.244-5.928,.131-4.596-.751-4.195-.608-9.1s-5.301-2.877-5.301-2.877c0,0-11.705-3.485-15.497,8.642-5.597,6.019-5.255,15.436,.764,21.033,2.753,2.56,6.373,3.983,10.132,3.984l.821-.039c3.379-.468,6.075-3.056,6.68-6.413l1.765-9.302Z" style="fill:#263238;"></path><path d="M95.087,169.549c.313-2.863-.017-5.248-2.88-5.561-2.863-.313-3.449,1.989-3.762,4.852-.313,2.863-.211,5.219,2.654,5.521,2.865,.302,3.663-1.951,3.987-4.812Z" style="fill:#407BFF;"></path><path d="M110.205,174.434c1.611,1.003,2.753,2.61,3.169,4.461,.544,2.423-1.695,3.57-3.984,2.777-2.038-.701-4.75-2.836-4.282-5.265,.34-1.75,2.034-2.894,3.785-2.554,.475,.092,.924,.29,1.312,.58Z" style="fill:#ef8274;"></path><path d="M112.541,156.523c-.99,.986-2.071,2.48-1.417,3.771,.368,.74,1.207,1.122,1.69,1.802,.461,.8,.654,1.727,.551,2.645-.037,3.341-.344,6.673-.918,9.965,2.95-3.497,6.098-7.191,6.995-11.694,.308-1.338,.273-2.733-.102-4.053-.404-1.33-1.405-2.394-2.707-2.879-1.298-.418-4.091,.444-4.091,.444Z" style="fill:#263238;"></path></g><path d="M138.838,214.707l11.691,11.154c.843,.811,2.184,.785,2.995-.058,.033-.034,.064-.069,.094-.105l14.677-17.322,5.919-9.337,1.364-1.003,8.817-4.913c.399-.222,.902-.096,1.148,.289h0c.263,.411,.133,.958-.286,1.207l-5.127,3.052,.925,2.655h0c1.134,2.516,.263,5.484-2.051,6.988l-7.184,4.671s-9.777,22.311-16.316,26.193c-5.192,3.086-24.323-16.987-24.323-16.987l7.657-6.486Z" style="fill:#ef8274;"></path><g><path d="M86.782,207.436c-.267-.804,.4-2.535-.404-2.267-.259,.086-1.746,1.596-1.926,1.802-1.397,1.557-3.715,4.633-6.119,10.952l-2.438,6.514,12.433,8.563,4.682-7.132-6.228-18.431Z" style="fill:#407BFF;"></path><path d="M85.431,215.083l1.362-1.751,2.667,2.015,3.549,10.521-4.682,7.132-2.381-1.637c.733-6.72-.515-16.279-.515-16.279Z" style="isolation:isolate; opacity:.2;"></path><path d="M134.246,257.269c-14.196,2.759-30.475,1.626-36.439,1.065-1.351-.137,1.145-16.027-13.188-44.819-1.461-2.719-.848-6.087,1.477-8.117,9.754-8.071,27.475-7.762,35.604-7.109,2.876,.202,5.492,1.735,7.075,4.144,2.829,4.793,4.736,10.074,5.621,15.569,.957,5.227,1.504,10.521,1.637,15.833,.378,12.57-1.145,23.308-1.786,23.434Z" style="fill:#407BFF;"></path><path d="M136.032,233.835c-4.579-.87-11.013-17.756-11.013-17.756l9.376,1.923c.957,5.227,1.504,10.521,1.637,15.833Z" style="isolation:isolate; opacity:.2;"></path><path d="M123.92,198.77c3.537,1.076,11.322,4.579,23.526,16.096l-11.354,15.136c-3.712-3.98-8.511-8.426-11.072-13.922-2.321-4.871-3.495-10.208-3.434-15.604,.014-.999,.834-1.798,1.833-1.784,.17,.002,.339,.029,.502,.078Z" style="fill:#407BFF;"></path></g><path d="M92.047,168.819l-.102-2.595c-3.702-2.962-9.653-2.562-12.925,.87-2.146,2.25-3.068,5.394-3.574,8.462-.506,3.068-.674,6.214-1.636,9.17-.963,2.957-2.903,5.801-5.818,6.882-2.171,.805-4.653,.558-6.753,1.534-3.178,1.477-4.532,5.916-2.719,8.915,1.699,2.811,5.81,3.746,8.612,2.102-.91,.888-.764,2.739,.278,3.632,1.219,1.044,3.029,1.027,4.586,.637,3.633-.911,6.764-3.63,8.174-7.1,.452,1.245,1.908,1.91,3.228,1.799,1.32-.111,2.508-.842,3.533-1.68,4.494-3.674,6.677-9.59,7.074-15.381,.398-5.791-.783-11.561-1.957-17.246Z" style="fill:#263238;"></path></g></g></svg>
